# xmcd CD database file
#
# Track frame offsets:
#	150
#	13644
#	25114
#	38430
#	52456
#	63340
#	79538
#	90902
#	103545
#	114625
#	124656
#	137868
#	150866
#	161855
#	175971
#	193767
#	206118
#	219155
#	230472
#	244592
#	254475
#
# Disc length: 3552 seconds
#
# Revision: 0
# Processed by: cddbd v1.4PL0 Copyright (c) Steve Scherf et al.
# Submitted via: Feurio! 1.65.3ß - http://www.feurio.com
#
DISCID=160dde15
DTITLE=Charlie Rich - I do my swingin' at home and Behind closed doors
DYEAR=1900
DGENRE=Country
TTITLE0=Sittin' and thinkin'
TTITLE1=The proudest, loneliest fool
TTITLE2=Mama, take me home
TTITLE3=Have a heart
TTITLE4=Hav You Ever Been Lonely
TTITLE5=Life has its little ups and downs
TTITLE6=Daddy, don't you walk so fast
TTITLE7=Golden Slipper Rose
TTITLE8=Papa was a good man
TTITLE9=I do my swingin' at home
TTITLE10=Behind closed doors
TTITLE11=If you wouldn't be my lady
TTITLE12=You never really wanted me
TTITLE13=A sunday kind of woman
TTITLE14=Peace on you
TTITLE15=The most beautiful girl
TTITLE16=I take it on home
TTITLE17='Til I can't take it anymore
TTITLE18=We love each other
TTITLE19=I'm not going hungry anymore
TTITLE20=Nothing in the world (to do with me)
EXTD=Songwriter: (c)1974 and 1975 Epic/CBS\r\n
EXTT0=
EXTT1=
EXTT2=
EXTT3=
EXTT4=
EXTT5=
EXTT6=
EXTT7=
EXTT8=
EXTT9=
EXTT10=
EXTT11=
EXTT12=
EXTT13=
EXTT14=
EXTT15=
EXTT16=
EXTT17=
EXTT18=
EXTT19=
EXTT20=
PLAYORDER=
